<svg xmlns="http://www.w3.org/2000/svg" viewBox="0 0 128 128">
  <rect width="128" height="128" rx="24" fill="#0f172a"/>
  <!-- Crop marks — thick filled L-brackets -->
  <g fill="#F4C430">
    <rect x="12" y="12" width="8" height="26"/>
    <rect x="12" y="12" width="26" height="8"/>
    <rect x="108" y="12" width="8" height="26"/>
    <rect x="90" y="12" width="26" height="8"/>
    <rect x="12" y="90" width="8" height="26"/>
    <rect x="12" y="108" width="26" height="8"/>
    <rect x="108" y="90" width="8" height="26"/>
    <rect x="90" y="108" width="26" height="8"/>
  </g>
  <!-- Kangaroo mid-leap — original traced path, scaled to fill -->
  <g transform="translate(-14,-52) scale(0.188)" fill="#F4C430">
    <path d="M447.020416,584.955444 C448.105988,589.443420 449.270660,593.914001 450.261444,598.422791 C452.688385,609.467041 452.636627,620.587097 450.861572,631.699158 C449.117462,642.617432 443.844971,651.664124 435.984558,659.370605 C422.288055,672.798889 408.702148,686.403503 398.539734,702.809448 C393.218536,711.399841 388.395569,720.412964 384.429932,729.697449 C380.331635,739.292603 382.084656,742.391846 390.494965,748.662964 C398.224579,754.426575 406.031464,760.232727 412.946747,766.908508 C423.664429,777.254883 429.866516,789.932007 428.885498,805.322449 C428.756165,807.351257 428.064392,809.344238 427.453125,812.192505 C425.044403,810.588501 423.435425,809.528748 421.838287,808.451416 C415.084167,803.895325 408.223114,799.484131 401.665680,794.660400 C400.183655,793.570251 398.623505,790.729309 399.033325,789.219177 C402.206482,777.526245 396.862091,770.065979 387.506958,764.341980 C378.005432,758.528564 368.674652,752.404480 358.935608,747.019714 C349.818420,741.978760 348.311218,738.178528 353.622955,729.068054 C362.609161,713.655334 371.245941,698.078308 376.353821,680.856323 C378.641876,673.141907 380.457245,665.248169 377.741608,657.303772 C377.025848,655.209839 375.139008,652.774536 373.182983,651.967957 C361.511993,647.155518 353.638977,638.666199 349.112030,627.222534 C344.928375,616.646729 338.212891,612.918701 325.864868,617.775146 C317.088898,621.226746 308.701385,625.840454 300.513763,630.580322 C277.866669,643.690674 253.977097,652.174194 227.430283,650.827820 C204.761871,649.678223 182.986267,644.448730 162.222183,635.209412 C159.826462,634.143372 157.596741,632.704285 155.515182,630.209595 C160.457382,630.637756 165.423386,630.883911 170.337555,631.526489 C188.558167,633.909302 206.833984,635.146545 225.168381,633.515747 C251.525299,631.171326 272.526459,617.938660 291.332703,600.362427 C309.347168,583.526184 327.199036,566.502808 345.602509,550.100403 C359.240417,537.945496 374.683380,528.565735 392.167847,522.537048 C413.702576,515.111938 433.946899,517.433289 452.890106,529.651978 C468.507050,539.725098 484.399902,549.116638 502.622406,553.522156 C510.021759,555.311035 517.676147,556.289795 525.274292,556.961487 C542.262634,558.463196 554.923767,550.138733 565.928528,538.300110 C569.307556,534.665039 570.198853,530.936157 568.697144,526.037415 C564.882935,513.595459 566.189819,501.666565 573.617371,490.699066 C577.539185,484.908142 580.058533,484.530060 583.143372,490.804443 C586.613098,497.861633 588.534424,505.692749 590.965942,513.239807 C591.674438,515.438965 591.810913,517.820618 592.231567,520.114624 C593.285339,525.861267 596.414368,529.976990 602.130676,531.508423 C612.997681,534.419922 619.184021,541.511230 623.968811,551.605957 C627.641479,559.354248 634.180725,565.817505 639.821472,572.536255 C644.423706,578.018066 645.299805,583.367981 641.634338,589.160095 C639.356689,592.759277 630.823914,595.466492 626.117188,592.793884 C616.839050,587.525391 607.039124,586.523193 596.736206,586.682739 C593.697998,586.729858 590.538025,585.450439 587.607605,584.326111 C583.660828,582.811890 580.367981,583.536133 577.619324,586.520081 C573.108643,591.416931 568.791382,596.491577 564.303833,601.410217 C555.666626,610.877197 547.234070,620.553406 538.194092,629.621887 C532.762451,635.070618 530.009827,641.084045 529.868469,648.664246 C529.663391,659.657043 529.271851,670.648682 528.788879,681.633301 C527.968262,700.298767 506.822174,714.107849 488.828400,707.378845 C490.972168,703.239075 492.924622,699.037048 495.328674,695.111572 C495.978668,694.050110 497.976532,693.352478 499.389008,693.294189 C509.008606,692.897156 514.957092,686.304932 514.431824,676.719910 C513.747559,664.233093 509.442444,652.993896 502.875061,642.558289 C502.192596,641.473816 499.959320,640.780396 498.500732,640.864319 C489.040833,641.408142 479.597443,642.234802 470.145386,642.923767 C468.538208,643.040894 466.915192,642.940247 464.592987,642.940247 C469.183411,620.426453 464.188873,600.725708 450.357727,582.642334 C447.430695,578.956543 444.937195,575.712585 442.275055,572.571045 C442.234650,572.604736 442.362885,572.535950 442.300476,572.827393 C443.746674,577.110168 445.383545,581.032776 447.020416,584.955444 Z"/>
  </g>
</svg>
